<svg xmlns="http://www.w3.org/2000/svg" width="280" height="372" fill="none"><path fill="#AAA" d="m140 372 40-24v-96l60-36v-48l-60 36v-72l100-60V24l-140 84v264Z"/><path fill="#fff" d="M280 24 240 0 140 60 40 0 0 24l140 84 140-84ZM180 204l60-36-40-24-20 12v48Z"/><path fill="#AAA" d="m80 120.5-40-24V264l40-24V120.5Z"/><path fill="#fff" d="m100 252-20-12-40 24 60 36v-48Z"/><path fill="#CCC" fill-rule="evenodd" d="m0 24 140 84v264L0 288V24Zm40 72.5 60 36V300l-60-36V96.5Z" clip-rule="evenodd"/></svg>